<?xml version="1.0" standalone="no"?>
<!DOCTYPE svg PUBLIC "-//W3C//DTD SVG 20010904//EN"
 "http://www.w3.org/TR/2001/REC-SVG-20010904/DTD/svg10.dtd">
<svg version="1.0" xmlns="http://www.w3.org/2000/svg"
 width="1280.000000pt" height="989.000000pt" viewBox="0 0 1280.000000 989.000000"
 preserveAspectRatio="xMidYMid meet">
<metadata>
Created by potrace 1.15, written by Peter Selinger 2001-2017
</metadata>
<g transform="translate(0.000000,989.000000) scale(0.100000,-0.100000)"
fill="#000000" stroke="none">
<path d="M2 8124 l3 -1766 50 -18 c217 -79 283 -99 440 -136 33 -8 80 -19 105
-25 53 -12 173 -35 250 -48 30 -5 66 -12 80 -15 24 -6 108 -17 290 -36 47 -5
202 -16 345 -25 244 -14 347 -14 655 1 256 12 750 78 1030 137 91 20 192 41
225 47 33 7 112 25 175 42 63 16 151 39 195 50 225 56 599 169 975 295 381
127 496 169 1355 493 55 21 165 63 245 95 80 31 186 71 235 90 50 19 162 62
250 95 88 34 192 73 230 87 39 13 111 41 160 60 50 20 119 46 155 58 36 12
155 55 265 94 548 197 1165 386 1575 482 274 64 343 78 535 112 318 57 381 66
545 83 569 58 1098 56 1485 -6 193 -31 346 -60 425 -80 42 -11 189 -48 245
-62 22 -5 49 -13 60 -17 11 -5 47 -16 80 -26 33 -9 73 -21 89 -26 16 -5 33 -9
37 -9 5 0 9 392 9 870 l0 870 -6400 0 -6400 0 2 -1766z"/>
<path d="M10510 8264 c-321 -28 -684 -83 -1017 -154 -181 -39 -556 -130 -618
-151 -16 -5 -84 -25 -150 -44 -369 -104 -793 -245 -1345 -445 -63 -23 -123
-44 -132 -47 -10 -3 -18 -9 -18 -14 0 -11 14 -12 24 -2 4 5 29 13 54 19 52 13
135 38 387 114 94 28 287 85 430 126 345 98 344 98 465 129 58 15 143 38 190
50 97 27 386 96 475 115 33 7 87 18 120 26 260 59 630 121 911 153 368 43 595
56 984 56 325 0 502 -9 740 -36 256 -29 297 -32 280 -21 -29 18 -351 77 -615
112 -246 32 -863 39 -1165 14z"/>
<path d="M0 1650 l0 -1650 6400 0 6400 0 0 983 0 984 -127 76 c-222 131 -628
326 -863 412 -261 97 -419 149 -590 195 -114 31 -159 43 -190 51 -79 20 -268
61 -360 78 -30 5 -80 15 -110 20 -30 6 -89 16 -130 22 -41 6 -102 15 -135 20
-33 5 -116 13 -185 19 -69 6 -144 15 -168 20 -23 6 -82 10 -130 10 -48 0 -114
5 -147 10 -64 11 -1014 16 -1100 6 -27 -3 -90 -8 -140 -11 -380 -22 -542 -36
-910 -80 -66 -8 -181 -21 -255 -30 -119 -14 -300 -38 -860 -114 -80 -11 -239
-34 -355 -50 -171 -24 -446 -60 -890 -116 -58 -8 -352 -37 -600 -59 -425 -40
-1087 -59 -1400 -42 -333 18 -682 52 -850 81 -16 3 -55 10 -85 15 -98 17 -198
36 -405 80 -22 5 -65 16 -95 24 -30 8 -66 18 -80 21 -231 59 -651 199 -805
269 -16 8 -58 26 -93 40 -160 67 -392 182 -596 295 -70 39 -132 71 -137 71 -5
0 -9 -693 -9 -1650z"/>
<path d="M330 3294 c0 -17 352 -182 580 -274 557 -223 1179 -375 1780 -434 85
-9 205 -21 265 -27 255 -26 1060 -22 1440 6 33 3 119 9 190 15 325 25 676 63
1219 134 174 23 206 29 195 40 -2 2 -139 -2 -304 -10 -693 -30 -816 -35 -1135
-44 -1360 -38 -2178 32 -3170 272 -285 69 -824 236 -1042 323 -10 4 -18 3 -18
-1z"/>
</g>
</svg>
